<svg xmlns="http://www.w3.org/2000/svg" viewBox="353.5 0 111.5 110.5" fill="none"><path d="M449.936 18.065L447.648 15.7609C447.147 15.2669 446.621 15.4281 446.472 16.102L445.047 22.5219C444.897 23.1958 445.173 24.1576 445.673 24.6516L446.945 25.9892C447.408 26.5114 447.991 26.4026 448.236 25.7531L450.343 20.1672C450.588 19.5104 450.393 18.5652 449.922 18.0501L449.944 18.0506L449.936 18.065ZM433.555 5.93505L431.133 4.80808C430.487 4.53621 430.037 4.86705 430.129 5.56178L431.321 14.3745C431.413 15.0619 432.016 15.8501 432.662 16.122L434.122 16.7065C434.761 17 435.246 16.6774 435.206 15.9768L434.77 7.75213C434.729 7.05874 434.193 6.23586 433.562 5.92796L433.555 5.93505ZM389.987 3.62917L387.346 4.66825C386.708 4.93588 386.611 5.53097 387.143 5.98205L399.521 16.5212C400.06 16.9652 401.018 17.114 401.656 16.8318L403.083 16.1911C403.736 15.9239 403.847 15.3146 403.346 14.8279L392.112 4.07065C391.611 3.58392 390.654 3.39143 390.002 3.62227L389.995 3.62208L389.987 3.62917ZM389.997 23.299L373.495 14.6349C372.872 14.3126 371.951 14.4345 371.439 14.9094L369.435 16.8687C368.945 17.3589 369.067 18.0107 369.698 18.304L387.081 26.4298C387.712 26.7232 389.77 25.2317 390.252 24.7559C390.734 24.2875 390.62 23.6286 390.004 23.2992L389.997 23.299ZM358.685 32.5349L357.629 35.029C357.369 35.6709 357.735 36.2634 358.424 36.3396L380.098 38.725C380.786 38.8011 381.584 38.3409 381.843 37.699L382.386 36.3139C382.667 35.6799 382.345 35.0666 381.658 34.9613L360.48 31.5758C359.793 31.4705 358.989 31.8869 358.693 32.5205L358.693 32.5351L358.685 32.5349ZM419.744 12.135L414.364 1.53723C414.042 0.916701 413.22 0.377885 412.516 0.337729L409.604 0.225606C408.907 0.222055 408.63 0.703134 408.989 1.30276L415.449 12.1618C415.807 12.7614 418.388 13.1856 419.07 13.2179C419.751 13.2502 420.058 12.7699 419.744 12.1496L419.744 12.135ZM353.799 52.4783L353.741 55.4794C353.738 56.1789 354.305 56.6601 354.991 56.554L377.819 53.0226C378.512 52.9167 379.095 52.2687 379.113 51.5695L379.126 49.9665C379.166 49.2753 378.629 48.7657 377.93 48.8277L355.127 51.1063C354.435 51.1758 353.831 51.8014 353.791 52.5L353.799 52.4783ZM437.44 34.5603L436.122 33.5713C435.783 33.3366 435.486 33.4819 435.46 33.8894L435.27 36.6465C435.245 37.0539 435.495 37.5706 435.834 37.8053L436.763 38.5145C437.071 38.7849 437.383 38.6618 437.452 38.2701L437.892 35.76C437.962 35.3609 437.763 34.8238 437.447 34.5605L437.44 34.5603ZM419.433 31.1625L417.824 31.7766C417.445 31.9344 417.384 32.2972 417.693 32.5675L422.225 36.6426C422.526 36.9128 423.068 36.9852 423.439 36.8054L424.449 36.387C424.834 36.244 424.917 35.8891 424.631 35.5901L420.651 31.4711C420.365 31.1867 419.818 31.0486 419.426 31.1696L419.441 31.1554L419.433 31.1625ZM410.191 39.2084C409.798 39.0889 409.661 38.7064 409.876 38.3622L410.883 36.9162C411.126 36.5946 411.644 36.4404 412.03 36.5889L419.087 39.2648C419.472 39.4133 419.594 39.8027 419.365 40.1465L418.834 41.0801C418.626 41.4318 418.137 41.6305 417.743 41.5109L410.191 39.2084ZM416.811 46.7995C416.786 47.2069 416.432 47.5475 416.027 47.5589L407.344 47.7777C406.933 47.7962 406.633 47.4677 406.666 47.0604L406.893 45.4266C406.962 45.0276 407.359 44.71 407.77 44.7279L416.24 45.0501C416.651 45.0681 416.958 45.4113 416.91 45.8182L416.811 46.8067L416.811 46.7995ZM427.815 30.4111C427.412 30.3569 427.178 30.6278 427.307 31.0174L428.541 34.8901C428.663 35.2795 429.094 35.6187 429.505 35.6367L430.617 35.753C431.02 35.8145 431.276 35.5442 431.177 35.1408L430.31 31.5619C430.21 31.1584 429.802 30.7689 429.408 30.6785L427.815 30.4038L427.815 30.4111ZM397.984 26.6331L406.801 31.3661C407.228 31.5886 407.876 31.5253 408.244 31.2215L409.248 30.4386C409.637 30.1572 409.627 29.7197 409.208 29.461L400.923 24.3337C400.518 24.0754 399.864 24.1094 399.482 24.3983L397.9 25.6689C397.525 25.9653 397.557 26.3961 397.984 26.6258L397.977 26.6257L397.984 26.6331ZM441.884 32.7664L443.09 28.2357C443.22 27.7726 443.024 27.1335 442.673 26.8037L440.958 25.3088C440.584 25.0076 440.228 25.1514 440.171 25.6236L439.555 30.607C439.491 31.0863 439.731 31.7412 440.074 32.0853L441.041 32.9923C441.377 33.3363 441.754 33.2368 441.884 32.7737L441.884 32.7664ZM449.39 35.4248L448.223 33.4705C447.962 33.0556 447.494 33.0143 447.161 33.3627L444.646 36.0521C444.314 36.4006 444.253 37.0258 444.499 37.433L445.012 38.3281C445.243 38.7495 445.753 38.8794 446.157 38.6057L449.064 36.6625C449.467 36.3961 449.607 35.8313 449.376 35.4099L449.39 35.4248ZM434.72 21.3425L432.891 20.5152C432.456 20.3071 432.142 20.5321 432.218 21.0151L432.991 26.7488C433.059 27.2243 433.463 27.7813 433.906 27.9823L435.131 28.5826C435.558 28.8051 435.886 28.6022 435.855 28.1277L435.56 22.6032C435.536 22.1289 435.154 21.5651 434.727 21.3499L434.72 21.3425ZM405.723 20.749C405.285 20.949 405.222 21.37 405.596 21.6786L412.474 27.5345C412.833 27.8426 413.506 27.9476 413.944 27.7622L415.168 27.2547C415.613 27.0841 415.698 26.6636 415.354 26.334L409.031 20.2812C408.688 19.9516 408.031 19.8106 407.586 19.9812L405.73 20.7492L405.723 20.749ZM403.655 36.2546L404.363 35.2819C404.652 34.8959 404.517 34.4624 404.058 34.312L393.87 30.928C393.412 30.7703 392.812 30.9661 392.53 31.3668L391.47 32.8697C391.202 33.2709 391.359 33.7049 391.826 33.8337L402.32 36.7592C402.787 36.8879 403.38 36.6701 403.647 36.269L403.655 36.2546ZM425.93 18.3592L424.183 18.0806C423.708 18.0099 423.45 18.3312 423.621 18.7802L425.902 25.0049C426.066 25.4537 426.59 25.8901 427.066 25.9607L428.17 26.1206C428.645 26.2131 428.924 25.907 428.79 25.4517L427.034 19.3718C426.907 18.9093 426.405 18.459 425.93 18.3665L425.93 18.3592ZM421.843 24.9796L418.033 18.5693C417.787 18.1548 417.193 17.8552 416.714 17.901L414.873 18.1228C414.394 18.1832 414.223 18.5505 414.492 18.951L418.83 25.3677C419.098 25.7682 419.708 26.0391 420.187 25.9641L421.417 25.8066C421.895 25.7607 422.082 25.3866 421.843 24.9796ZM398.789 46.761L386.932 47.9394C386.453 47.9853 386.031 48.4116 386.003 48.8991L385.899 50.9151C385.893 51.396 386.281 51.7267 386.753 51.6515L398.591 49.8167C399.07 49.7489 399.486 49.2933 399.513 48.8131L399.584 47.5322C399.633 47.0525 399.268 46.6932 398.79 46.7464L398.789 46.761ZM387.04 59.9816C387.167 60.444 387.645 60.6969 388.104 60.5485L399.569 56.7217C400.028 56.566 400.306 56.0631 400.186 55.5936L399.903 54.3473C399.813 53.8713 399.358 53.5971 398.892 53.7234L387.251 56.9991C386.785 57.1254 386.493 57.6134 386.613 58.0829L387.04 59.9743L387.04 59.9816ZM389.165 38.9825C388.682 38.9335 388.159 39.2552 388.008 39.7104L387.39 41.4288C387.253 41.8844 387.528 42.2923 388.012 42.3195L399.541 43.0564C400.024 43.0836 400.54 42.7399 400.684 42.2845L401.088 41.1581C401.261 40.7108 401.015 40.3036 400.54 40.2475L389.172 38.9827L389.165 38.9825ZM464.498 55.7568C464.502 55.0646 464.01 54.2283 463.387 53.906L458.056 51.1584C457.433 50.8361 456.933 51.1438 456.937 51.8435L456.889 53.6788C456.855 54.3775 457.294 55.2708 457.864 55.6718L463.254 59.4923C463.824 59.8933 464.321 59.6657 464.362 58.9672L464.513 55.7353L464.513 55.7572L464.498 55.7568ZM460.516 75.6363C460.782 74.9946 460.625 74.0212 460.184 73.4778L454.964 67.0746C454.523 66.5312 453.941 66.6181 453.667 67.2523L452.977 68.6554C452.681 69.2891 452.766 70.2678 453.162 70.8466L458.21 78.1854C458.606 78.7568 459.165 78.713 459.46 78.0794L460.501 75.6286L460.509 75.6288L460.516 75.6363ZM429.689 106.282C430.335 106.021 430.913 105.242 430.954 104.544L432.052 89.0929C432.099 88.4018 431.603 88.0172 430.943 88.2551L429.455 88.7266C428.789 88.9352 428.174 89.6844 428.075 90.3742L425.986 106.426C425.894 107.108 426.369 107.492 427.021 107.269L429.682 106.289L429.689 106.289L429.689 106.282ZM416.435 91.6603C416.673 91.0106 416.313 90.4474 415.638 90.4153C414.964 90.3832 412.424 90.6451 412.158 91.2795L404.72 108.861C404.446 109.502 404.791 110.058 405.488 110.098L408.296 110.222C409 110.24 409.763 109.714 410.008 109.057L416.435 91.6531L416.435 91.6603ZM386.952 105.608C387.598 105.88 388.478 105.662 388.918 105.12L402.379 88.5329C402.818 87.9977 402.653 87.323 402.007 87.0438L400.674 86.3751C400.043 86.0745 399.142 86.2551 398.681 86.7752L384.181 102.941C383.72 103.454 383.849 104.143 384.472 104.443L386.938 105.593L386.952 105.608ZM446.051 80.1941C445.863 79.526 445.317 79.3588 444.827 79.8416C444.344 80.3246 442.713 82.3519 442.849 83.0332L445.364 95.393C445.5 96.0743 446.031 96.2485 446.55 95.781L448.637 93.7655C449.134 93.2683 449.38 92.32 449.199 91.6448L446.051 80.1941ZM369.852 94.0131C370.353 94.5071 371.217 94.5733 371.779 94.1579L390.259 80.7042C390.821 80.2961 390.877 79.5542 390.383 79.0676L389.299 77.8807C388.813 77.3725 387.949 77.2772 387.359 77.6554L368.015 90.1976C367.432 90.576 367.332 91.3094 367.81 91.8247L369.874 94.0137L369.867 94.0135L369.852 94.0131ZM444.092 51.7647C444.154 51.3655 443.933 50.8277 443.617 50.579L441.603 49.0035C441.286 48.7548 440.975 48.8706 440.92 49.2773L440.706 50.4232C440.615 50.8216 440.777 51.3797 441.07 51.6643L443.075 53.5893C443.368 53.8739 443.686 53.7874 443.785 53.3892L444.099 51.7794L444.092 51.7647ZM432.991 66.2629C433.363 66.0977 433.683 65.6323 433.702 65.2247L433.882 59.5158C433.892 59.1079 433.597 58.9035 433.211 59.0465L432.181 59.406C431.782 59.5195 431.433 59.9331 431.386 60.3327L430.764 66.3727C430.724 66.7797 431.012 67.0059 431.397 66.8701L433.006 66.256L432.992 66.2557L432.991 66.2629ZM424.774 59.6944C424.989 59.3429 425.485 59.1663 425.871 59.2857L425.878 59.2859L426.904 59.6259C427.305 59.7311 427.479 60.1073 427.293 60.4668L423.85 67.1476C423.664 67.5145 423.181 67.7424 422.78 67.6664L421.058 67.2645C420.664 67.1523 420.505 66.7692 420.72 66.4249L424.781 59.6946L424.774 59.6944ZM421.254 57.0522C421.562 57.3299 421.565 57.7818 421.271 58.0656L415.192 63.9273C414.898 64.2112 414.391 64.2417 414.067 63.9855L412.796 62.9176C412.495 62.6401 412.499 62.1957 412.822 61.9344L419.423 56.3268C419.731 56.0652 420.222 56.0853 420.515 56.3698L421.254 57.0376L421.254 57.0522ZM440.74 59.9929C440.977 59.6638 441.014 59.0963 440.818 58.7341L439.053 55.4962C438.857 55.134 438.483 55.1024 438.225 55.4164L437.477 56.2423C437.183 56.5262 437.081 57.0701 437.262 57.4392L438.956 61.1344C439.122 61.5104 439.481 61.5489 439.746 61.2424L440.741 59.9783L440.74 59.9929ZM420.128 83.871C419.962 84.3185 420.224 84.6679 420.709 84.6367L422.738 84.5292C423.217 84.4833 423.727 84.0811 423.849 83.6179L426.554 74.3016C426.691 73.8388 426.399 73.5032 425.928 73.5493L424.655 73.6401C424.171 73.6566 423.647 74.0366 423.488 74.4916L420.128 83.8637L420.135 83.8639L420.128 83.871ZM448.605 50.1694C448.193 49.9036 447.851 50.0842 447.831 50.5646L447.73 51.8811C447.703 52.3614 447.965 53.0095 448.338 53.3253L452.157 56.6166C452.516 56.932 452.886 56.8032 452.957 56.3313L453.222 54.079C453.271 53.5993 452.979 52.9941 452.567 52.7356L448.62 50.1697L448.605 50.1694ZM452.393 43.2133C452.28 42.744 451.797 42.418 451.318 42.4857L447.848 42.9785C447.369 43.0462 447.071 43.4831 447.183 43.9451L447.406 44.9493C447.497 45.4181 447.963 45.8383 448.446 45.8801L452.13 46.209C452.606 46.2506 452.931 45.9019 452.848 45.426L452.401 43.1989L452.4 43.2135L452.393 43.2133ZM450.994 63.4077C451.167 62.9604 451.067 62.2946 450.769 61.9225L447.263 57.619C446.965 57.2469 446.581 57.3098 446.415 57.7573L445.912 59.0196C445.717 59.4663 445.794 60.1461 446.063 60.5466L449.35 65.3181C449.619 65.7186 450.002 65.6776 450.19 65.2379L450.987 63.4075L450.994 63.4077ZM431.735 82.4455C432.18 82.2749 432.576 81.7386 432.61 81.2658L433.229 72.5657C433.263 72.0929 432.918 71.8362 432.473 72.0068L431.221 72.4407C430.769 72.5965 430.344 73.1248 430.28 73.5895L429.113 82.5085C429.049 82.9879 429.379 83.2588 429.838 83.1177L431.735 82.4528L431.735 82.4455ZM417.839 72.9673C417.372 72.8459 416.779 73.0782 416.525 73.487L410.698 82.6274C410.438 83.0288 410.61 83.4559 411.084 83.5776L412.886 83.9888C413.361 84.0959 413.94 83.8413 414.178 83.4248L419.467 74.1392C419.705 73.7228 419.511 73.3096 419.036 73.2171L417.853 72.9677L417.839 72.9673ZM446.465 71.4523C446.754 71.0662 446.823 70.4049 446.607 69.9693L443.813 64.2851C443.604 63.8569 443.194 63.8098 442.898 64.1957L442.185 65.0517C441.882 65.4228 441.783 66.098 441.962 66.5399L444.465 72.6829C444.644 73.1248 445.054 73.1938 445.357 72.83L446.465 71.4596L446.465 71.4523ZM438.954 69.2602C438.856 68.7912 438.464 68.6353 438.082 68.9241L437.058 69.6263C436.655 69.8854 436.382 70.4905 436.45 70.9733L437.555 78.625C437.623 79.1005 438 79.2633 438.397 78.9894L439.915 77.9284C440.304 77.6397 440.548 77.0266 440.443 76.5575L438.954 69.2602ZM407.153 68.3898C407.542 68.1084 407.57 67.6062 407.212 67.2763L406.296 66.3706C405.953 66.0338 405.338 65.9668 404.934 66.2405L394.896 72.7426C394.493 73.0018 394.428 73.5029 394.756 73.8613L396.194 75.2906C396.538 75.6275 397.146 75.6724 397.528 75.3836L407.139 68.3821L407.153 68.3898ZM390.468 68.0508C390.699 68.4722 391.245 68.6467 391.677 68.432L402.535 63.1319C402.966 62.9171 403.119 62.4183 402.866 61.9963L402.234 60.8867C402.011 60.4582 401.465 60.2691 401.019 60.4616L389.918 65.238C389.48 65.4307 389.291 65.9359 389.507 66.3642L390.468 68.0508ZM412.841 72.0722C413.159 71.7161 413.068 71.2473 412.633 71.0319L411.576 70.4652C411.157 70.221 410.546 70.3072 410.206 70.6482L402.135 78.8484C401.795 79.1894 401.863 79.6795 402.268 79.9232L403.89 80.7888C404.309 81.0257 404.914 80.9175 405.246 80.5618L412.841 72.0722ZM407.654 54.9715L408.181 56.4136C408.333 56.7892 408.776 56.9683 409.154 56.8178L417.378 53.4315C417.756 53.2737 417.929 52.8409 417.785 52.4582L417.421 51.5159C417.299 51.1265 416.879 50.9115 416.493 51.0545L408.097 54.021C407.712 54.1568 407.502 54.5886 407.654 54.9642L407.654 54.9715ZM460.192 33.9128C459.93 33.272 459.196 33.0051 458.578 33.317L454.657 35.3212C454.032 35.6402 453.746 36.4272 454.023 37.0611L454.686 38.9221C454.934 39.5699 455.687 39.9611 456.36 39.7819L460.625 38.6684C461.305 38.4893 461.66 37.8135 461.435 37.159L460.207 33.9132L460.192 33.9128ZM381.282 68.1545C381.927 67.8943 382.233 67.1517 381.971 66.5108L381.351 64.9715C381.119 64.3169 380.386 63.9699 379.727 64.2006L357.631 71.9488C356.979 72.1796 356.644 72.8997 356.891 73.5474L357.949 76.3224C358.211 76.9633 358.959 77.2815 359.605 77.0068L381.274 68.147L381.282 68.1545ZM442.901 44.0524C443.293 43.9314 443.502 43.5069 443.38 43.1175L442.741 41.4684C442.597 41.0857 442.161 40.9213 441.789 41.1084L440.436 41.7656C440.064 41.9454 439.89 42.4 440.034 42.7827L440.538 44.0201C440.674 44.4027 441.109 44.618 441.501 44.497L442.901 44.0524Z" fill="#000000"/></svg>
