<svg width="48" height="48" viewBox="0 0 48 48" fill="none" xmlns="http://www.w3.org/2000/svg">
<path d="M0 7.68C0 4.99175 0 3.64762 0.523169 2.62085C0.983362 1.71767 1.71767 0.983361 2.62085 0.523169C3.64762 0 4.99175 0 7.68001 0H40.32C43.0083 0 44.3524 0 45.3792 0.523169C46.2824 0.983361 47.0167 1.71767 47.4769 2.62085C48 3.64762 48 4.99175 48 7.68V40.32C48 43.0083 48 44.3524 47.4769 45.3792C47.0167 46.2823 46.2824 47.0166 45.3792 47.4768C44.3524 48 43.0083 48 40.32 48H7.68001C4.99175 48 3.64762 48 2.62085 47.4768C1.71767 47.0166 0.983362 46.2823 0.523169 45.3792C0 44.3524 0 43.0083 0 40.32V7.68Z" fill="#CDFA50"/>
<path d="M11.2 29.3337H16.5333V37.3337H11.2V29.3337Z" fill="#1E2119"/>
<path d="M32.5333 16.0003H37.8667V24.0003H32.5333V16.0003Z" fill="#1E2119"/>
<path d="M16.5333 24.0003H32.5333V29.3337H16.5333V24.0003Z" fill="#1E2119"/>
<path d="M11.2 10.667H32.5333V16.0003H16.5333V24.0003L11.2 23.9337V10.667Z" fill="#1E2119"/>
</svg>
