<svg xmlns="http://www.w3.org/2000/svg" width="32" height="32" viewBox="0 0 32 32" fill="none"><path fill="#141414" d="M14.758 25.037c.967 2.269 2.008 4.665 3.26 6.963H0v-4.515c4.016.12 8.37-.251 12.264-1.496a24 24 0 0 0 2.494-.952"/><path fill="#141414" d="M32 32h-9.073c-1.764-2.751-3.104-5.893-4.49-9.138a15 15 0 0 0 1.766-1.586c2.188-2.3 3.617-5.302 3.945-9.065.196-2.246-.197-5.639-2.535-7.698-2.145-1.889-5.883-2.616-8.5-.409-1.18.994-1.796 2.343-2.124 3.495-.767 2.696-.463 5.503.175 8.02.495 1.95 1.222 3.845 1.927 5.524a19 19 0 0 1-2.117.812C7.592 23.036 3.68 23.368 0 23.248V0h32z"/><path fill="#141414" d="M15.842 7.342c.6-.505 1.956-.545 2.972.35.822.724 1.269 2.392 1.115 4.15-.247 2.836-1.287 4.93-2.795 6.515q-.21.22-.434.43c-.556-1.372-1.07-2.788-1.43-4.208-.549-2.163-.687-4.136-.207-5.82v-.002c.2-.705.484-1.166.78-1.415Z"/></svg>