<svg width="160" height="160" viewBox="0 0 160 160" fill="none" xmlns="http://www.w3.org/2000/svg">
<g clip-path="url(#clip0_3_25)">
<path d="M22.6191 1.66699H137.381C148.952 1.66699 158.333 11.0475 158.333 22.6191V137.381C158.333 148.952 148.952 158.333 137.381 158.333H22.6191C11.0475 158.333 1.66699 148.952 1.66699 137.381V22.6191C1.66699 11.0475 11.0475 1.66699 22.6191 1.66699Z" fill="black" stroke="#B7BCBF" stroke-width="3.33333"/>
<path d="M82.771 33.208L75.0661 44.157C74.4609 45.0175 73.6581 45.7202 72.7251 46.2063C71.7922 46.6924 70.7562 46.9476 69.7043 46.9506H27.7104V33.1629L82.771 33.208Z" fill="white"/>
<path d="M135.083 33.2075L68.9835 126.837H24.917L91.0167 33.2075H135.083Z" fill="white"/>
<path d="M77.2741 126.837L85.024 115.843C85.6316 114.988 86.4359 114.292 87.3692 113.814C88.3025 113.336 89.3372 113.089 90.3859 113.095H132.335V126.612L77.2741 126.837Z" fill="white"/>
</g>
<defs>
<clipPath id="clip0_3_25">
<rect width="160" height="160" fill="white"/>
</clipPath>
</defs>
</svg>
